<?xml version="1.0" encoding="UTF-8"?>
<svg width="153px" height="120px" viewBox="0 0 153 120" version="1.1" xmlns="http://www.w3.org/2000/svg" xmlns:xlink="http://www.w3.org/1999/xlink">
    <!-- Generator: Sketch 49.2 (51160) - http://www.bohemiancoding.com/sketch -->
    <title>12</title>
    <desc>Created with Sketch.</desc>
    <defs>
        <linearGradient x1="50%" y1="0%" x2="50%" y2="100%" id="linearGradient-1">
            <stop stop-color="#FDFDFD" offset="0%"></stop>
            <stop stop-color="#F0F0F0" offset="100%"></stop>
        </linearGradient>
        <path d="M58.5232165,139.62069 L76.8039338,139.62069 L76.8039338,166 L14.95,166 L14.95,139.62069 L33.9819796,139.62069 L33.9819796,84.4482759 L14.95,84.4482759 L14.95,64.6206897 C20.2088628,64.1609172 26.1354287,62.1207078 32.7298757,58.5 C39.3243227,54.8792922 45.1256795,50.7126672 50.1341202,46 L58.5232165,46 L58.5232165,139.62069 Z M117.539048,46 C123.632651,46 128.995776,47.6379147 133.628584,50.9137931 C138.261391,54.1896716 141.85072,58.7011207 144.396677,64.4482759 C146.942635,70.195431 148.215594,76.8045603 148.215594,84.2758621 C148.215594,92.5517655 146.671348,99.6493957 143.58281,105.568966 C140.494271,111.488535 135.652851,117.609164 129.058404,123.931034 L115.410471,137.034483 L148.340805,137.034483 L148.340805,166 L81.3532447,166 L81.3532447,159.793103 C81.3532447,153.126403 82.1044996,147.494276 83.6070318,142.896552 C85.109564,138.298828 87.6972196,133.988526 91.3700761,129.965517 L116.161734,103.068966 C120.66933,98.1264121 122.923095,92.0919897 122.923095,84.9655172 C122.923095,81.6321672 122.067499,78.7873681 120.356282,76.4310345 C118.645065,74.0747009 116.579114,72.8965517 114.158367,72.8965517 L112.530632,72.8965517 C110.109886,72.8965517 108.043935,74.0459655 106.332718,76.3448276 C104.621501,78.6436897 103.765905,81.5172241 103.765905,84.9655172 L103.765905,89.7931034 L81.7288759,89.7931034 L81.7288759,86.5172414 C81.7288759,78.9309966 82.9809673,72.0632491 85.4851877,65.9137931 C87.989408,59.7643371 91.6622095,54.9080638 96.5037022,51.3448276 C101.345195,47.7815914 107.063079,46 113.657526,46 L117.539048,46 Z" id="path-2"></path>
        <filter x="-13.1%" y="-10.4%" width="126.2%" height="129.2%" filterUnits="objectBoundingBox" id="filter-3">
            <feOffset dx="0" dy="5" in="SourceAlpha" result="shadowOffsetOuter1"></feOffset>
            <feGaussianBlur stdDeviation="5" in="shadowOffsetOuter1" result="shadowBlurOuter1"></feGaussianBlur>
            <feColorMatrix values="0 0 0 0 0   0 0 0 0 0   0 0 0 0 0  0 0 0 0.15 0" type="matrix" in="shadowBlurOuter1"></feColorMatrix>
        </filter>
    </defs>
    <g id="Page-1" stroke="none" stroke-width="1" fill="none" fill-rule="evenodd">
        <g id="Главная" transform="translate(-1155.000000, -821.000000)">
            <g id="О-компании" transform="translate(0.000000, 720.000000)">
                <g id="Цифры" transform="translate(859.000000, 60.000000)">
                    <g id="Иконка" transform="translate(277.000000, 0.000000)">
                        <g id="Group-6" transform="translate(14.000000, 0.000000)">
                            <g id="12">
                                <use fill="black" fill-opacity="1" filter="url(#filter-3)" xlink:href="#path-2"></use>
                                <use fill="url(#linearGradient-1)" fill-rule="evenodd" xlink:href="#path-2"></use>
                            </g>
                        </g>
                    </g>
                </g>
            </g>
        </g>
    </g>
</svg>