<?xml version="1.0" encoding="UTF-8"?>
<svg width="72px" height="64px" viewBox="0 0 72 64" version="1.1" xmlns="http://www.w3.org/2000/svg" xmlns:xlink="http://www.w3.org/1999/xlink">
    <!-- Generator: Sketch 49.2 (51160) - http://www.bohemiancoding.com/sketch -->
    <title>logo</title>
    <desc>Created with Sketch.</desc>
    <defs></defs>
    <g id="Page-1" stroke="none" stroke-width="1" fill="none" fill-rule="evenodd">
        <g id="Главная" transform="translate(-236.000000, -2439.000000)" fill-rule="nonzero">
            <g id="Футер" transform="translate(0.000000, 2390.000000)">
                <g id="Логотип" transform="translate(236.000000, 49.000000)">
                    <g id="logo">
                        <path d="M6.288,0.0271807229 L22.0967711,0.0271807229 C21.7434217,0.529156627 21.4218795,1.05657831 21.1333012,1.60886747 C20.2959036,3.21021687 19.8777831,5.00009639 19.8777831,6.97850602 C19.8777831,8.57985542 20.2224578,10.1337831 20.9118072,11.6408675 C21.5577831,13.0531084 22.3760964,14.3820723 23.3679036,15.6289157 C21.561253,16.8832771 19.7898795,18.2365301 18.0653494,19.6950361 C15.974747,21.4635181 14.0206265,23.3274217 12.1983614,25.2688193 C10.1939277,27.2801928 8.37108434,29.3788916 6.72925301,31.563759 C4.55306024,34.4593735 2.78515663,37.4209157 1.42727711,40.4472289 C0.93860241,41.3921928 0.475951807,42.3446747 0.0381686747,43.3029398 L0.0381686747,6.45744578 C0.0381686747,2.92106024 2.85050602,0.0271807229 6.288,0.0271807229 Z M24.1093012,0.0271807229 L47.0405783,0.0271807229 C48.3724337,0.975614458 49.6106024,2.06804819 50.7539277,3.30448193 C47.0804819,4.30843373 43.2902169,5.68366265 39.3837108,7.43016867 C34.4188916,9.1593253 29.5327229,11.5546988 24.8692048,14.6151325 C24.0300723,13.5146024 23.3262651,12.3585542 22.7583614,11.1464096 C22.1181687,9.78043373 21.7977831,8.43816867 21.7977831,7.11961446 C21.7977831,4.25927711 22.5686747,1.89513253 24.1093012,0.0271807229 Z" id="Shape" fill="#A92423"></path>
                        <path d="M50.7504578,0.0271807229 L65.7073735,0.0271807229 C67.5741687,0.0271807229 69.2564819,0.86573494 70.4044337,2.18833735 C69.5872771,1.98939759 68.725012,1.83325301 67.8170602,1.7193253 C65.6015422,1.44173494 63.3114217,1.34920482 60.9478554,1.44173494 C59.5691566,1.44173494 58.1655904,1.55739759 56.7371566,1.78872289 C55.3093012,2.01946988 54.0537831,2.27450602 52.9700241,2.55151807 C52.3038072,1.64414458 51.5635663,0.802120482 50.7504578,0.0271807229 Z M71.9294458,5.75421687 C71.9473735,5.94795181 71.9572048,6.14342169 71.9572048,6.34120482 L71.9572048,13.3948916 C71.4679518,14.3809157 70.7780241,15.3218313 69.8856867,16.2176386 C68.4578313,17.6512771 66.7338795,18.8998554 64.714988,19.9633735 C62.6960964,21.0268916 60.4308434,21.8365301 57.9192289,22.3911325 C55.4076145,22.9463133 52.8219759,23.2239036 50.1634699,23.2239036 L50.0154217,23.2239036 C45.9776386,23.2239036 42.0375904,22.8306506 38.1964337,22.0447229 C34.3552771,21.2582169 31.1548916,19.940241 28.5935422,18.0902169 C31.7453494,15.408 35.3898795,12.8183133 39.5259759,10.3211566 C43.6626506,7.824 47.701012,5.88144578 51.6404819,4.49407229 C52.3298313,5.32626506 53.0191807,6.45918072 53.7085301,7.89339759 C54.3984578,9.32703614 54.8906024,10.7369639 55.1861205,12.1249157 C55.4816386,13.1421687 55.6048193,13.8355663 55.5550843,14.2056867 C55.5059277,14.5758072 55.5799518,14.8071325 55.7771566,14.8996627 C55.9737831,15.0847229 56.1218313,14.8302651 56.2201446,14.1362892 C56.3184578,13.4428916 56.3184578,12.5407229 56.2201446,11.4309398 C56.0235181,10.1360964 55.728,8.81812048 55.3335904,7.47701205 C54.939759,6.13590361 54.4470361,4.95672289 53.8565783,3.93889157 C54.7431325,3.56877108 55.949494,3.24549398 57.476241,2.96790361 C59.0024096,2.69031325 60.3568193,2.50525301 61.5383133,2.41272289 C65.4783614,2.32019277 68.506988,3.01416867 70.6241928,4.49407229 C71.1487229,4.86014458 71.5836145,5.28057831 71.9294458,5.75421687 Z M71.9572048,19.3006265 L71.9572048,56.8528193 C71.9572048,60.3255904 69.1448675,63.1668434 65.7073735,63.1668434 L22.8474217,63.1668434 C26.4208193,62.8244819 29.739759,62.0194699 32.804241,60.7529639 C36.4973494,59.2267952 39.8706506,57.4461687 42.9241446,55.4116627 C43.7123855,54.949012 44.5983614,54.3712771 45.5832289,53.6773012 C46.5680964,52.9839036 47.5038072,52.2667952 48.3903614,51.5271325 C49.2763373,50.7868916 50.0888675,50.0929157 50.8279518,49.4457831 C51.5664578,48.7986506 52.1326265,48.2897349 52.5270361,47.9196145 C52.7236627,47.7345542 52.8965783,47.4806747 53.0440482,47.1568193 C53.1915181,46.8329639 53.1672289,46.578506 52.9700241,46.3934458 C52.7733976,46.2083855 52.5021687,46.2546506 52.157494,46.532241 C51.8128193,46.8098313 51.5415904,47.0411566 51.3449639,47.2262169 C50.6556145,47.9658795 49.4000964,49.0525301 47.5778313,50.4861687 C45.7555663,51.9198072 44.0073253,53.1915181 42.3331084,54.3018795 C39.4768193,56.0593735 36.3007229,57.6780723 32.804241,59.1573976 C29.307759,60.6373012 25.344,61.3775422 20.9118072,61.3775422 C17.1689639,61.3775422 14.1160482,60.5216386 11.7519036,58.8104096 C9.38833735,57.099759 8.20626506,54.2093494 8.20626506,50.1391807 C8.20626506,47.9196145 8.67412048,45.4918554 9.60983133,42.8559036 C10.5455422,40.2193735 11.8750843,37.5371566 13.5990361,34.8086747 C15.3224096,32.0801928 17.3661687,29.3517108 19.7297349,26.6232289 C22.0933012,23.894747 24.6540723,21.3738795 27.4120482,19.0617831 C30.0711325,20.9118072 33.4195663,22.2986024 37.4579277,23.2239036 C41.4957108,24.1486265 45.5832289,24.6112771 49.7199036,24.6112771 C52.5761928,24.6112771 55.5799518,24.3568193 58.731759,23.8484819 C61.8835663,23.3395663 64.8133012,22.5530602 67.5221205,21.4895422 C69.1304096,20.8580241 70.6085783,20.1281928 71.9572048,19.3006265 Z M15.4687229,63.1668434 L6.288,63.1668434 C2.85050602,63.1668434 0.0381686747,60.3255904 0.0381686747,56.8528193 L0.0381686747,53.5396627 C0.966939759,56.4780723 2.80250602,58.7207711 5.54718072,60.2671807 C8.31845783,61.8286265 11.6258313,62.7955663 15.4687229,63.1668434 Z" id="Shape" fill="#71706E"></path>
                    </g>
                </g>
            </g>
        </g>
    </g>
</svg>