<?xml version="1.0" encoding="UTF-8"?>
<svg width="129px" height="136px" viewBox="0 0 129 136" version="1.1" xmlns="http://www.w3.org/2000/svg" xmlns:xlink="http://www.w3.org/1999/xlink">
    <!-- Generator: Sketch 49.2 (51160) - http://www.bohemiancoding.com/sketch -->
    <title>boss</title>
    <desc>Created with Sketch.</desc>
    <defs>
        <filter x="-14.7%" y="-9.4%" width="129.4%" height="126.3%" filterUnits="objectBoundingBox" id="filter-1">
            <feOffset dx="0" dy="5" in="SourceAlpha" result="shadowOffsetOuter1"></feOffset>
            <feGaussianBlur stdDeviation="5" in="shadowOffsetOuter1" result="shadowBlurOuter1"></feGaussianBlur>
            <feColorMatrix values="0 0 0 0 0   0 0 0 0 0   0 0 0 0 0  0 0 0 0.15 0" type="matrix" in="shadowBlurOuter1" result="shadowMatrixOuter1"></feColorMatrix>
            <feMerge>
                <feMergeNode in="shadowMatrixOuter1"></feMergeNode>
                <feMergeNode in="SourceGraphic"></feMergeNode>
            </feMerge>
        </filter>
    </defs>
    <g id="Page-1" stroke="none" stroke-width="1" fill="none" fill-rule="evenodd">
        <g id="Главная" transform="translate(-881.000000, -805.000000)" fill-rule="nonzero">
            <g id="О-компании" transform="translate(0.000000, 720.000000)">
                <g id="Цифры" transform="translate(859.000000, 60.000000)">
                    <g id="Иконка">
                        <g id="Group-6" transform="translate(6.000000, 0.000000)">
                            <g id="boss" filter="url(#filter-1)" transform="translate(21.248731, 30.238579)">
                                <polygon id="Shape" fill="#E6AF78" points="80.9086294 93.2218728 80.9086294 76.822335 39.2284264 76.822335 39.2284264 93.2218728 60.0685279 111.964467"></polygon>
                                <path d="M111.475413,100.961984 L83.2757798,94.2940178 C82.8497996,94.1933536 82.4581559,94.0223801 82.0915547,93.8150845 L59.2515272,107.204202 L37.3021856,93.1675127 C36.7339538,93.7050803 36.0286338,94.1046238 35.2275328,94.2942773 L7.02789937,100.962243 C2.91009043,101.935936 0,105.628341 0,109.879328 L0,127.815718 C0,130.345554 2.04057441,132.395939 4.55773035,132.395939 L113.944808,132.395939 C116.462222,132.395939 118.502538,130.345295 118.502538,127.815718 L118.502538,109.879328 C118.503054,105.628081 115.592964,101.935417 111.475413,100.961984 Z" id="Shape" fill="#EFF2FA"></path>
                                <path d="M39.2284264,76.8225901 L39.2284264,93.4498394 C65.4813301,102.646053 80.9086294,79.6301424 80.9086294,79.6301424 L80.9086294,76.822335 L39.2284264,76.822335 L39.2284264,76.8225901 Z" id="Shape" fill="#D29B6E"></path>
                                <path d="M29.4213198,24.5177665 L31.3934667,68.7237214 C31.5775543,72.8533686 33.5650846,76.6831338 36.8109739,79.1634299 L46.1686727,86.3141012 C48.5192503,88.1099976 51.3779916,89.0812183 54.3162137,89.0812183 L63.3690655,89.0812183 C66.3072876,89.0812183 69.1660289,88.1102588 71.5166065,86.3141012 L80.8743053,79.1634299 C84.1201946,76.6828726 86.1077249,72.8536299 86.2918124,68.7237214 L88.2639594,24.5177665 C88.2639594,24.5177665 29.4213198,24.5177665 29.4213198,24.5177665 Z" id="Shape" fill="#F0C087"></path>
                                <path d="M51.9290456,33.7412287 C60.932187,33.7412287 74.4365165,31.4354285 77.6395939,24.5177665 L29.4213198,24.5177665 L31.3826374,68.7237214 C31.5657141,72.8533686 33.5423306,76.6828726 36.7706512,79.1634299 L46.0769655,86.3141012 C48.4146358,88.1099976 51.2576794,89.0812183 54.1797672,89.0812183 L58.6812104,89.0812183 C54.1797672,89.0812183 45.1766259,79.8577561 45.1766259,68.3287548 C45.1766259,62.6900323 45.1766259,47.5762914 45.1766259,40.6586294 C45.1766259,38.3528292 47.4273475,33.7412287 51.9290456,33.7412287 Z" id="Shape" fill="#E6AF78"></path>
                                <g id="Group" transform="translate(0.000000, 103.791878)" fill="#E4EAF6">
                                    <path d="M16.8222081,13.4475491 L2.08693274,0.0863322566 C0.852187817,1.66449631 0.128291878,3.65039825 0.128291878,5.77646008 L0.128291878,23.7538523 C0.128291878,26.2894723 2.16447462,28.3445441 4.6762132,28.3445441 L20.5941954,28.3445441 L20.5941954,21.9856013 C20.5939378,18.7281188 19.2226574,15.6240581 16.8222081,13.4475491 Z" id="Shape"></path>
                                    <path d="M101.681618,13.4475491 L116.416893,0.0863322566 C117.651638,1.66449631 118.375534,3.65039825 118.375534,5.77646008 L118.375534,23.7538523 C118.375534,26.2894723 116.339352,28.3445441 113.827613,28.3445441 L97.9096307,28.3445441 L97.9096307,21.9856013 C97.9096307,18.7281188 99.2809112,15.6240581 101.681618,13.4475491 Z" id="Shape"></path>
                                </g>
                                <polygon id="Shape" fill="#5B5D6E" points="64.5634518 132.395939 53.1218274 132.395939 54.5520305 111.964467 63.1332487 111.964467"></polygon>
                                <path d="M64.5634518,107.878173 L53.1218274,107.878173 L53.1218274,111.979712 C53.1218274,113.325495 54.2671305,114.416244 55.680224,114.416244 L62.004796,114.416244 C63.4178895,114.416244 64.5631925,113.325495 64.5631925,111.979712 L64.5631925,107.878173 L64.5634518,107.878173 Z" id="Shape" fill="#515262"></path>
                                <g id="Group" transform="translate(31.873096, 87.446701)" fill="#E4EAF6">
                                    <path d="M6.53950898,0.617460977 L27.3789474,20.2225895 C27.3789474,20.2225895 21.5427476,23.3023347 14.3407385,29.5096129 C12.8550852,30.7898928 10.6077505,30.2712471 9.81094232,28.4388433 L0.0201462025,5.92352157 L3.11749569,1.06725984 C3.88821708,-0.142283312 5.50611211,-0.354493338 6.53950898,0.617460977 Z" id="Shape"></path>
                                    <path d="M48.2181276,0.617460977 L27.3786892,20.2225895 C27.3786892,20.2225895 33.214889,23.3023347 40.4168981,29.5096129 C41.9025514,30.7898928 44.1498861,30.2712471 44.9466943,28.4388433 L54.7374904,5.92352157 L51.6401409,1.06725984 C50.8691612,-0.142283312 49.2512662,-0.354493338 48.2181276,0.617460977 Z" id="Shape"></path>
                                </g>
                                <path d="M72.7360406,9.57692124 L74.982863,24.5527884 C85.2395054,26.4875126 86.7176566,41.6687602 86.9305277,46.0047961 C86.9690835,46.7917462 87.2354439,47.5515512 87.6880666,48.2135316 L91.6014746,53.9390863 C91.6014746,53.9390863 90.2620698,44.47315 96.3948767,38.1155769 C96.3951483,38.1155769 98.5010521,0.534806125 72.7360406,9.57692124 Z" id="Shape" fill="#785550"></path>
                                <path d="M93.0187677,55.0826492 L90.3477191,65.6929187 C90.0311603,66.9506273 88.8935858,67.8324873 87.5879483,67.8324873 C86.153114,67.8324873 84.9431679,66.7717532 84.7651873,65.3580621 L83.3989721,54.5058335 C83.0333614,51.6009924 85.3138714,49.035533 88.2618084,49.035533 L88.2639527,49.035533 C91.4525924,49.0357992 93.7920718,52.0109122 93.0187677,55.0826492 Z" id="Shape" fill="#F0C087"></path>
                                <path d="M32.8507988,5.9881164 L36.1916856,8.32748505 C21.0863019,19.7591526 23.9095252,39.3666763 23.9095252,39.3666763 C28.4269897,43.9971521 28.4269897,55.5736041 28.4269897,55.5736041 L32.9444541,50.9431282 C32.9444541,50.9431282 31.2010824,37.5668391 39.7206508,32.4209625 C47.6263416,27.6457023 54.543789,30.1057246 61.6024871,30.1057246 C80.5195935,30.1057246 85.813681,22.79805 84.8960631,13.8987968 C84.4211331,9.29402541 77.5525605,-0.297936858 60.0497527,0.00710695183 C52.9861926,0.130121179 39.7211626,2.32234488 32.8507988,5.9881164 Z" id="Shape" fill="#694B4B"></path>
                                <path d="M31.6241957,27.3060535 C31.6241957,27.3060535 29.19626,17.9143797 36.3371713,8.17258883 C21.055854,19.2462473 23.9119597,38.239716 23.9119597,38.239716 C28.4820394,42.7251778 28.4820394,53.9390863 28.4820394,53.9390863 L33.0521191,49.4536245 C33.0521191,49.4536245 31.2884421,36.4962449 39.9072387,31.5115233 C47.9050076,26.8858114 54.9030231,29.2687924 62.0439344,29.2687924 C65.1563208,29.2687924 67.8684951,29.064261 70.284264,28.7136358 C55.5463134,29.1984133 46.8583988,18.2413758 31.6241957,27.3060535 Z" id="Shape" fill="#5A4146"></path>
                                <path d="M24.6665115,55.0826492 L27.3375601,65.6929187 C27.6541189,66.9506273 28.7916934,67.8324873 30.0973309,67.8324873 C31.5321652,67.8324873 32.7421113,66.7717532 32.9200919,65.3580621 L34.2863071,54.5058335 C34.6519178,51.6009924 32.3714078,49.035533 29.4234708,49.035533 L29.4213265,49.035533 C26.2326868,49.0357992 23.8932074,52.0109122 24.6665115,55.0826492 Z" id="Shape" fill="#E6AF78"></path>
                                <path d="M89.2628599,127.492386 L73.3716578,127.492386 C72.1179014,127.492386 71.1015228,128.590088 71.1015228,129.944162 L71.1015228,132.395939 L91.5329949,132.395939 L91.5329949,129.944162 C91.5329949,128.590366 90.5163592,127.492386 89.2628599,127.492386 Z" id="Shape" fill="#E4EAF6"></path>
                            </g>
                        </g>
                    </g>
                </g>
            </g>
        </g>
    </g>
</svg>