<?xml version="1.0" encoding="UTF-8"?>
<svg width="127px" height="127px" viewBox="0 0 127 127" version="1.1" xmlns="http://www.w3.org/2000/svg" xmlns:xlink="http://www.w3.org/1999/xlink">
    <!-- Generator: Sketch 49.2 (51160) - http://www.bohemiancoding.com/sketch -->
    <title>clipboard</title>
    <desc>Created with Sketch.</desc>
    <defs>
        <filter x="-16.4%" y="-10.2%" width="132.7%" height="128.5%" filterUnits="objectBoundingBox" id="filter-1">
            <feOffset dx="0" dy="5" in="SourceAlpha" result="shadowOffsetOuter1"></feOffset>
            <feGaussianBlur stdDeviation="5" in="shadowOffsetOuter1" result="shadowBlurOuter1"></feGaussianBlur>
            <feColorMatrix values="0 0 0 0 0   0 0 0 0 0   0 0 0 0 0  0 0 0 0.15 0" type="matrix" in="shadowBlurOuter1" result="shadowMatrixOuter1"></feColorMatrix>
            <feMerge>
                <feMergeNode in="shadowMatrixOuter1"></feMergeNode>
                <feMergeNode in="SourceGraphic"></feMergeNode>
            </feMerge>
        </filter>
    </defs>
    <g id="Page-1" stroke="none" stroke-width="1" fill="none" fill-rule="evenodd">
        <g id="Главная" transform="translate(-1167.000000, -1070.000000)" fill-rule="nonzero">
            <g id="О-компании" transform="translate(0.000000, 720.000000)">
                <g id="Цифры" transform="translate(859.000000, 60.000000)">
                    <g id="Иконка" transform="translate(291.000000, 256.000000)">
                        <g id="Group-6">
                            <g id="clipboard" filter="url(#filter-1)" transform="translate(27.000000, 39.000000)">
                                <path d="M7.64292645,8 L99.3570736,8 C103.560586,8 107,11.4498832 107,15.6667316 L107,115.333268 C107,119.549873 103.560829,123 99.3570736,123 L7.64292645,123 C3.43941393,123 0,119.550117 0,115.333268 L0,15.6667316 C0.00024257098,11.4498832 3.43941393,8 7.64292645,8 Z" id="Shape" fill="#E2574C"></path>
                                <path d="M99.3573161,8 L7.64292645,8 C3.43941393,8 0,11.3229688 0,15.3846875 L0,20 C0,15.9385156 3.43917136,12.6153125 7.64292645,12.6153125 L99.3570736,12.6153125 C103.560586,12.6153125 107,15.9382813 107,20 L107,15.3844531 C107,11.3229688 103.560829,8 99.3573161,8 Z" id="Shape" fill="#D05046"></path>
                                <path d="M17.8095584,21 L90.1904416,21 C92.2857713,21 94,22.7216805 94,24.8261186 L94,105.173881 C94,107.278319 92.2857713,109 90.1904416,109 L17.8095584,109 C15.7142287,109 14,107.278319 14,105.173881 L14,24.8261186 C14,22.7216805 15.7142287,21 17.8095584,21 Z" id="Shape" fill="#F0DDAB"></path>
                                <path d="M24.9062651,15 L82.0937349,15 C83.142096,15 84,15.8438333 84,16.875 L84,24.375 C84,27.4687381 81.42653,30 78.2812046,30 L28.7187954,30 C25.57347,30 23,27.4687381 23,24.375 L23,16.875 C23,15.8438333 23.857662,15 24.9062651,15 Z" id="Shape" fill="#CCD0D2"></path>
                                <path d="M37.37941,48.8182259 L79.1034317,48.8182259 C80.14646,48.8182259 81,47.9590402 81,46.9091129 C81,45.8591857 80.14646,45 79.1034317,45 L37.37941,45 C36.3363817,45 35.4828416,45.8591857 35.4828416,46.9091129 C35.4828416,47.9590402 36.3361409,48.8182259 37.37941,48.8182259 Z M79.1034317,54.5453223 L37.37941,54.5453223 C36.3363817,54.5453223 35.4828416,55.404508 35.4828416,56.4544353 C35.4828416,57.5043626 36.3363817,58.3635482 37.37941,58.3635482 L79.1034317,58.3635482 C80.14646,58.3635482 81,57.5043626 81,56.4544353 C81,55.404508 80.14646,54.5453223 79.1034317,54.5453223 Z M79.1034317,64.0908871 L37.37941,64.0908871 C36.3363817,64.0908871 35.4828416,64.9500727 35.4828416,66 C35.4828416,67.0499273 36.3363817,67.9091129 37.37941,67.9091129 L79.1034317,67.9091129 C80.14646,67.9091129 81,67.0499273 81,66 C81,64.9500727 80.14646,64.0908871 79.1034317,64.0908871 Z M29.7931367,45 L27.8965683,45 C26.85354,45 26,45.8591857 26,46.9091129 C26,47.9590402 26.85354,48.8182259 27.8965683,48.8182259 L29.7931367,48.8182259 C30.836165,48.8182259 31.689705,47.9590402 31.689705,46.9091129 C31.689705,45.8589433 30.836165,45 29.7931367,45 Z M29.7931367,54.5453223 L27.8965683,54.5453223 C26.85354,54.5453223 26,55.404508 26,56.4544353 C26,57.5043626 26.85354,58.3635482 27.8965683,58.3635482 L29.7931367,58.3635482 C30.836165,58.3635482 31.689705,57.5043626 31.689705,56.4544353 C31.689705,55.404508 30.836165,54.5453223 29.7931367,54.5453223 Z M29.7931367,64.0908871 L27.8965683,64.0908871 C26.85354,64.0908871 26,64.9500727 26,66 C26,67.0499273 26.85354,67.9091129 27.8965683,67.9091129 L29.7931367,67.9091129 C30.836165,67.9091129 31.689705,67.0499273 31.689705,66 C31.689705,64.9500727 30.836165,64.0908871 29.7931367,64.0908871 Z M79.1034317,73.6364518 L37.37941,73.6364518 C36.3363817,73.6364518 35.4828416,74.4956374 35.4828416,75.5455647 C35.4828416,76.595492 36.3363817,77.4546777 37.37941,77.4546777 L79.1034317,77.4546777 C80.14646,77.4546777 81,76.595492 81,75.5455647 C81,74.4956374 80.14646,73.6364518 79.1034317,73.6364518 Z M79.1034317,83.1817741 L37.37941,83.1817741 C36.3363817,83.1817741 35.4828416,84.0409598 35.4828416,85.0908871 C35.4828416,86.1408143 36.3363817,87 37.37941,87 L79.1034317,87 C80.14646,87 81,86.1408143 81,85.0908871 C81,84.0409598 80.14646,83.1817741 79.1034317,83.1817741 Z M29.7931367,73.6364518 L27.8965683,73.6364518 C26.85354,73.6364518 26,74.4956374 26,75.5455647 C26,76.595492 26.85354,77.4546777 27.8965683,77.4546777 L29.7931367,77.4546777 C30.836165,77.4546777 31.689705,76.595492 31.689705,75.5455647 C31.689705,74.4956374 30.836165,73.6364518 29.7931367,73.6364518 Z M29.7931367,83.1817741 L27.8965683,83.1817741 C26.85354,83.1817741 26,84.0409598 26,85.0908871 C26,86.1408143 26.85354,87 27.8965683,87 L29.7931367,87 C30.836165,87 31.689705,86.1408143 31.689705,85.0908871 C31.689705,84.0409598 30.836165,83.1817741 29.7931367,83.1817741 Z" id="Shape" fill="#D8C69A"></path>
                                <path d="M41.6842485,0 L66.3157515,0 C69.4420761,0 72,2.5312619 72,5.625 L72,15 L36,15 L36,5.625 C36,2.5312619 38.5579239,0 41.6842485,0 Z" id="Shape" fill="#CCD0D2"></path>
                                <path d="M23,17 L23,21 L84,21 L84,17 C84,15.9000889 83.142096,15 82.0937349,15 L24.9062651,15 C23.857662,15 23,15.9000889 23,17 Z" id="Shape" fill="#BCC0C2"></path>
                                <polygon id="Shape" fill="#AEB1B3" points="36 12 72 12 72 16 36 16"></polygon>
                            </g>
                        </g>
                    </g>
                </g>
            </g>
        </g>
    </g>
</svg>