<?xml version="1.0" encoding="UTF-8"?>
<svg width="100px" height="18px" viewBox="0 0 100 18" version="1.1" xmlns="http://www.w3.org/2000/svg" xmlns:xlink="http://www.w3.org/1999/xlink">
    <!-- Generator: Sketch 49.2 (51160) - http://www.bohemiancoding.com/sketch -->
    <title>REDDER</title>
    <desc>Created with Sketch.</desc>
    <defs></defs>
    <g id="Page-1" stroke="none" stroke-width="1" fill="none" fill-rule="evenodd">
        <g id="Главная" transform="translate(-1264.000000, -2694.000000)" fill="#434343">
            <g id="Футер" transform="translate(0.000000, 2390.000000)">
                <g id="Нижняя-строка" transform="translate(236.000000, 300.000000)">
                    <g id="Копирайт" transform="translate(885.000000, 1.000000)">
                        <g id="REDDER" transform="translate(143.000000, 3.000000)">
                            <path d="M0,0.0340395076 C5.28380529,0.0340395076 7.93096165,0.0340395076 7.94146907,0.0340395076 C11.343713,0.259801477 13.1065616,2.50081222 13.5779337,4.90508696 C14.0630358,7.37939255 12.9427199,9.963778 11.1447203,11.1099362 C11.1636699,11.1393458 12.4890359,13.162681 15.1208184,17.1799417 L9.60279439,17.1799417 L6.65374782,12.1271369 L4.38679055,12.1271369 L4.38679055,17.1799417 L0,17.1799417 L0,0.0340395076 Z M4.37909091,3.9571445 L4.37909091,8.24036891 C6.59316322,8.24036891 7.71555124,8.24036891 7.74625496,8.24036891 C8.87794714,8.03991937 9.32456405,6.96676925 9.32456405,6.04027238 C9.32456405,5.20943173 8.95518027,4.17982794 7.74625496,3.9571445 C7.73714466,3.9571445 6.61475664,3.9571445 4.37909091,3.9571445 Z" id="Combined-Shape"></path>
                            <polygon id="Rectangle-3" points="17.5444955 0.0341413452 28.4698833 0.0341413452 28.4698833 3.96733393 21.8806308 3.96733393 21.8806308 6.39312147 27.7226605 6.39312147 27.7226605 10.2490711 21.8806308 10.2490711 21.8806308 13.2878586 28.4698833 13.2878586 28.4698833 17.1800272 17.5444955 17.1800272"></polygon>
                            <path d="M32.6401213,0.0341072318 C36.3750945,0.0341072318 38.5944349,0.0341072318 39.2981425,0.0341072318 C44.7974897,0.15775138 47.4944705,4.49526491 47.4699641,8.60708453 C47.4454577,12.7189041 45.1171476,16.4878181 40.0995075,17.1800618 C39.2938649,17.1800618 36.8074028,17.1800618 32.6401213,17.1800618 L32.6401213,0.0341072318 Z M37.0052404,4.00142156 L37.0052404,13.1854861 C38.023511,13.1854861 38.7612471,13.1854861 39.2184487,13.1854861 C41.8102984,13.1854861 43.2303309,10.7765146 43.1901189,8.59283777 C43.1499069,6.40916096 42.0933352,4.23582871 39.2184487,4.00142156 C38.8190951,4.00142156 38.081359,4.00142156 37.0052404,4.00142156 Z" id="Combined-Shape"></path>
                            <path d="M51.2120178,0.0341413452 C54.9469909,0.0341413452 57.1663313,0.0341413452 57.870039,0.0341413452 C63.3693862,0.157785494 66.0663669,4.49529902 66.0418606,8.60711864 C66.0173542,12.7189383 63.6890441,16.4878522 58.671404,17.1800959 C57.8657614,17.1800959 55.3792993,17.1800959 51.2120178,17.1800959 L51.2120178,0.0341413452 Z M55.5771369,4.00145567 L55.5771369,13.1855202 C56.5954074,13.1855202 57.3331435,13.1855202 57.7903452,13.1855202 C60.3821949,13.1855202 61.8022274,10.7765487 61.7620154,8.59287189 C61.7218033,6.40919508 60.6652317,4.23586282 57.7903452,4.00145567 C57.3909916,4.00145567 56.6532555,4.00145567 55.5771369,4.00145567 Z" id="Combined-Shape"></path>
                            <polygon id="Rectangle-3" points="69.7849095 0.0341413452 80.7102973 0.0341413452 80.7102973 3.96733393 74.1210448 3.96733393 74.1210448 6.39312147 79.9630745 6.39312147 79.9630745 10.2490711 74.1210448 10.2490711 74.1210448 13.2878586 80.7102973 13.2878586 80.7102973 17.1800272 69.7849095 17.1800272"></polygon>
                            <path d="M84.8753841,0.0341413452 C90.1591894,0.0341413452 92.8063457,0.0341413452 92.8168532,0.0341413452 C96.2190971,0.259903315 97.9819457,2.50091406 98.4533178,4.9051888 C98.9384199,7.37949438 97.818104,9.96387984 96.0201044,11.1100381 C96.0390539,11.1394476 97.36442,13.1627828 99.9962025,17.1800436 L94.4781785,17.1800436 L91.5291319,12.1272387 L89.2621746,12.1272387 L89.2621746,17.1800436 L84.8753841,17.1800436 L84.8753841,0.0341413452 Z M89.254475,3.95724634 L89.254475,8.24047074 C91.4685473,8.24047074 92.5909353,8.24047074 92.621639,8.24047074 C93.7533312,8.04002121 94.1999481,6.96687109 94.1999481,6.04037421 C94.1999481,5.20953357 93.8305644,4.17992978 92.621639,3.95724634 C92.6125287,3.95724634 91.4901407,3.95724634 89.254475,3.95724634 Z" id="Combined-Shape"></path>
                        </g>
                    </g>
                </g>
            </g>
        </g>
    </g>
</svg>