<?xml version="1.0" encoding="UTF-8"?>
<svg width="223px" height="63px" viewBox="0 0 223 63" version="1.1" xmlns="http://www.w3.org/2000/svg" xmlns:xlink="http://www.w3.org/1999/xlink">
    <!-- Generator: Sketch 49.2 (51160) - http://www.bohemiancoding.com/sketch -->
    <title>Логотип</title>
    <desc>Created with Sketch.</desc>
    <defs></defs>
    <g id="Page-1" stroke="none" stroke-width="1" fill="none" fill-rule="evenodd">
        <g id="Главная" transform="translate(-237.000000, -2440.000000)">
            <g id="Футер" transform="translate(0.000000, 2390.000000)">
                <g id="Логотип" transform="translate(236.000000, 50.000000)">
                    <path d="M103.368,39.336 C100.752,39.336 98.592,38.52 96.864,36.888 C95.136,35.232 94.272,33.144 94.272,30.6 C94.272,28.032 95.136,25.944 96.84,24.312 C98.568,22.68 100.752,21.864 103.368,21.864 C105.024,21.864 106.488,22.224 107.808,22.92 L107.808,26.4 C106.512,25.536 105.048,25.104 103.392,25.104 C101.784,25.104 100.464,25.632 99.384,26.664 C98.328,27.696 97.8,28.992 97.8,30.6 C97.8,32.208 98.352,33.528 99.432,34.56 C100.512,35.592 101.88,36.096 103.536,36.096 C105.36,36.096 106.896,35.616 108.144,34.632 L108.144,38.112 C106.776,38.928 105.192,39.336 103.368,39.336 Z M114.384,35.4 C115.008,36.048 115.8,36.36 116.76,36.36 C117.72,36.36 118.512,36.048 119.136,35.4 C119.76,34.752 120.072,33.96 120.072,33 C120.072,32.04 119.76,31.248 119.136,30.624 C118.512,29.976 117.72,29.664 116.76,29.664 C115.8,29.664 115.008,29.976 114.384,30.624 C113.76,31.248 113.448,32.04 113.448,33 C113.448,33.96 113.76,34.752 114.384,35.4 Z M110.112,33 C110.112,31.224 110.736,29.736 111.984,28.536 C113.232,27.312 114.816,26.712 116.76,26.712 C118.704,26.712 120.288,27.312 121.536,28.536 C122.784,29.76 123.408,31.248 123.408,33 C123.408,34.8 122.784,36.288 121.536,37.512 C120.288,38.712 118.704,39.312 116.76,39.312 C114.816,39.312 113.232,38.712 111.984,37.512 C110.736,36.288 110.112,34.8 110.112,33 Z M131.448,39 L128.064,39 L128.064,29.856 L124.32,29.856 L124.32,27.024 L135.24,27.024 L135.24,29.856 L131.448,29.856 L131.448,39 Z M144.552,26.712 C146.184,26.712 147.528,27.312 148.584,28.536 C149.664,29.736 150.192,31.224 150.192,33.024 C150.192,34.8 149.664,36.288 148.584,37.512 C147.528,38.712 146.184,39.312 144.552,39.312 C142.848,39.312 141.552,38.712 140.616,37.536 L140.616,43.8 L137.232,43.8 L137.232,27.024 L140.616,27.024 L140.616,28.488 C141.504,27.312 142.824,26.712 144.552,26.712 Z M143.592,29.664 C142.272,29.664 141.168,30.432 140.616,31.464 L140.616,34.584 C141.168,35.616 142.272,36.36 143.592,36.36 C144.528,36.36 145.32,36.048 145.92,35.4 C146.52,34.752 146.832,33.96 146.832,33.024 C146.832,32.064 146.52,31.272 145.92,30.624 C145.32,29.976 144.528,29.664 143.592,29.664 Z M153.816,43.944 C152.832,43.944 152.016,43.776 151.416,43.464 L151.416,40.512 C151.968,40.824 152.592,40.992 153.24,40.992 C154.464,40.992 155.208,40.248 155.904,38.592 L150.744,27.024 L154.392,27.024 L157.56,34.896 L160.56,27.024 L164.136,27.024 L158.592,40.248 C157.536,42.72 155.952,43.944 153.816,43.944 Z M167.112,42.048 L163.872,42.048 L163.872,36.168 L165.408,36.168 C166.32,34.752 166.8,32.496 166.848,29.352 L166.896,27.024 L176.976,27.024 L176.976,36.168 L178.944,36.168 L178.944,42.048 L175.752,42.048 L175.752,39 L167.112,39 L167.112,42.048 Z M168.864,36.168 L173.664,36.168 L173.664,29.856 L169.92,29.856 C169.92,32.352 169.56,34.464 168.864,36.168 Z M184.656,39 L181.272,39 L181.272,27.024 L184.656,27.024 L184.656,31.464 L189.576,31.464 L189.576,27.024 L192.96,27.024 L192.96,39 L189.576,39 L189.576,34.296 L184.656,34.296 L184.656,39 Z M199.44,39 L196.272,39 L196.272,27.024 L199.608,27.024 L199.608,34.08 L205.032,27.024 L208.2,27.024 L208.2,39 L204.864,39 L204.864,31.944 L199.44,39 Z M214.896,39 L211.512,39 L211.512,27.024 L214.896,27.024 L214.896,31.392 L219.024,27.024 L223.176,27.024 L217.968,32.424 L223.992,39 L219.624,39 L214.896,33.84 L214.896,39 Z" id="Сотрудник" fill="#A92423"></path>
                    <g id="logo" transform="translate(1.000000, 0.000000)" fill-rule="nonzero">
                        <path d="M6.288,0.0267560241 L22.0967711,0.0267560241 C21.7434217,0.520888555 21.4218795,1.04006927 21.1333012,1.58372892 C20.2959036,3.16005723 19.8777831,4.92196988 19.8777831,6.86946686 C19.8777831,8.44579518 20.2224578,9.97544274 20.9118072,11.4589789 C21.5577831,12.8491536 22.3760964,14.1573524 23.3679036,15.3847139 C21.561253,16.6194759 19.7898795,17.9515843 18.0653494,19.3873012 C15.974747,21.1281506 14.0206265,22.9629307 12.1983614,24.873994 C10.1939277,26.8539398 8.37108434,28.9198464 6.72925301,31.0705753 C4.55306024,33.9209458 2.78515663,36.8362139 1.42727711,39.8152409 C0.93860241,40.7454398 0.475951807,41.6830392 0.0381686747,42.6263314 L0.0381686747,6.35654819 C0.0381686747,2.87541867 2.85050602,0.0267560241 6.288,0.0267560241 Z M24.1093012,0.0267560241 L47.0405783,0.0267560241 C48.3724337,0.960370482 49.6106024,2.03573494 50.7539277,3.2528494 C47.0804819,4.24111445 43.2902169,5.59485542 39.3837108,7.31407228 C34.4188916,9.01621084 29.5327229,11.3741566 24.8692048,14.3867711 C24.0300723,13.3034367 23.3262651,12.1654518 22.7583614,10.972247 C22.1181687,9.62761445 21.7977831,8.30632228 21.7977831,7.00837048 C21.7977831,4.19272591 22.5686747,1.86552108 24.1093012,0.0267560241 Z" id="Shape" fill="#A92423"></path>
                        <path d="M50.7504578,0.0267560241 L65.7073735,0.0267560241 C67.5741687,0.0267560241 69.2564819,0.852207832 70.4044337,2.15414458 C69.5872771,1.95831325 68.725012,1.80460843 67.8170602,1.69246084 C65.6015422,1.41920783 63.3114217,1.32812349 60.9478554,1.41920783 C59.5691566,1.41920783 58.1655904,1.53306325 56.7371566,1.76077409 C55.3093012,1.98791566 54.0537831,2.23896686 52.9700241,2.5116506 C52.3038072,1.61845482 51.5635663,0.789587349 50.7504578,0.0267560241 Z M71.9294458,5.66430723 C71.9473735,5.85501506 71.9572048,6.04743073 71.9572048,6.24212349 L71.9572048,13.1855964 C71.4679518,14.1562139 70.7780241,15.0824277 69.8856867,15.964238 C68.4578313,17.3754759 66.7338795,18.6045452 64.714988,19.6514458 C62.6960964,20.6983464 60.4308434,21.4953343 57.9192289,22.0412711 C55.4076145,22.5877772 52.8219759,22.8610301 50.1634699,22.8610301 L50.0154217,22.8610301 C45.9776386,22.8610301 42.0375904,22.4739217 38.1964337,21.7002741 C34.3552771,20.9260573 31.1548916,19.6286747 28.5935422,17.8075573 C31.7453494,15.16725 35.3898795,12.6180272 39.5259759,10.1598885 C43.6626506,7.70175 47.701012,5.78954819 51.6404819,4.42385241 C52.3298313,5.24304217 53.0191807,6.35825602 53.7085301,7.77006325 C54.3984578,9.1813012 54.8906024,10.5691988 55.1861205,11.9354639 C55.4816386,12.9368223 55.6048193,13.6193856 55.5550843,13.9837228 C55.5059277,14.3480602 55.5799518,14.5757711 55.7771566,14.6668555 C55.9737831,14.8490241 56.1218313,14.5985422 56.2201446,13.9154097 C56.3184578,13.2328464 56.3184578,12.3447741 56.2201446,11.2523314 C56.0235181,9.97771989 55.728,8.68033735 55.3335904,7.36018374 C54.939759,6.04003012 54.4470361,4.87927409 53.8565783,3.87734639 C54.7431325,3.51300903 55.949494,3.19478314 57.476241,2.92153012 C59.0024096,2.64827711 60.3568193,2.46610843 61.5383133,2.37502409 C65.4783614,2.28393976 68.506988,2.96707228 70.6241928,4.42385241 C71.1487229,4.78420482 71.5836145,5.19806927 71.9294458,5.66430723 Z M71.9572048,18.9990542 L71.9572048,55.964494 C71.9572048,59.383003 69.1448675,62.1798615 65.7073735,62.1798615 L22.8474217,62.1798615 C26.4208193,61.8428494 29.739759,61.0504157 32.804241,59.8036988 C36.4973494,58.3013765 39.8706506,56.5485723 42.9241446,54.5458555 C43.7123855,54.0904337 44.5983614,53.5217259 45.5832289,52.8385934 C46.5680964,52.1560301 47.5038072,51.4501265 48.3903614,50.7220211 C49.2763373,49.9933464 50.0888675,49.3102139 50.8279518,48.6731927 C51.5664578,48.0361717 52.1326265,47.5352078 52.5270361,47.1708705 C52.7236627,46.9887018 52.8965783,46.7387892 53.0440482,46.419994 C53.1915181,46.1011988 53.1672289,45.8507168 52.9700241,45.6685482 C52.7733976,45.4863795 52.5021687,45.5319217 52.157494,45.8051747 C51.8128193,46.0784277 51.5415904,46.3061385 51.3449639,46.4883073 C50.6556145,47.2164126 49.4000964,48.2860843 47.5778313,49.6973223 C45.7555663,51.1085602 44.0073253,52.3604006 42.3331084,53.4534126 C39.4768193,55.1834458 36.3007229,56.7768524 32.804241,58.2330633 C29.307759,59.6898434 25.344,60.4185181 20.9118072,60.4185181 C17.1689639,60.4185181 14.1160482,59.575988 11.7519036,57.8914969 C9.38833735,56.2075753 8.20626506,53.3623283 8.20626506,49.355756 C8.20626506,47.1708705 8.67412048,44.7810452 9.60983133,42.1862801 C10.5455422,39.5909458 11.8750843,36.9506385 13.5990361,34.2647892 C15.3224096,31.5789398 17.3661687,28.8930903 19.7297349,26.2072409 C22.0933012,23.5213916 24.6540723,21.0399126 27.4120482,18.7639427 C30.0711325,20.5850602 33.4195663,21.9501867 37.4579277,22.8610301 C41.4957108,23.7713042 45.5832289,24.2267259 49.7199036,24.2267259 C52.5761928,24.2267259 55.5799518,23.976244 58.731759,23.4758494 C61.8835663,22.9748856 64.8133012,22.2006686 67.5221205,21.1537681 C69.1304096,20.5321175 70.6085783,19.8136898 71.9572048,18.9990542 Z M15.4687229,62.1798615 L6.288,62.1798615 C2.85050602,62.1798615 0.0381686747,59.383003 0.0381686747,55.964494 L0.0381686747,52.7031055 C0.966939759,55.5956024 2.80250602,57.8032591 5.54718072,59.325506 C8.31845783,60.8625542 11.6258313,61.8143856 15.4687229,62.1798615 Z" id="Shape" fill="#71706E"></path>
                    </g>
                </g>
            </g>
        </g>
    </g>
</svg>